<?xml version="1.0"?>
<svg version="1.1" xmlns="http://www.w3.org/2000/svg" xmlns:xlink="http://www.w3.org/1999/xlink" width="380" height="255">
    <desc iVinci="yes" version="4.4" gridStep="20" showGrid="no" snapToGrid="no" codePlatform="0"/>
    <g id="Layer1">
        <g id="Shape1">
            <desc type="0" basicInfo-basicType="0" basicInfo-roundedRectRadius="12" basicInfo-polygonSides="6" basicInfo-starPoints="5" bounding="rect(-554.43,-634.318,1108.84,1268.61)" text="" font-familyName="" font-pixelSize="20" font-bold="0" font-underline="0" font-alignment="1" strokeStyle="0" markerStart="0" markerEnd="0" shadowEnabled="0" shadowOffsetX="0" shadowOffsetY="2" shadowBlur="4" shadowOpacity="160" blurEnabled="0" blurRadius="4" transform="matrix(0.135563,4.73198e-05,-4.73207e-05,0.135566,265.163,93.9028)" pers-center="0,0" pers-size="0,0" pers-start="0,0" pers-end="0,0" locked="0" mesh="" flag="Trace_1"/>
            <path id="shapePath1" d="M190,102.345 L243.788,7.90333 L340.291,179.903 L297.127,179.903 L237.942,75.0378 L243.788,64.6619 L302.244,168.091 L321.677,168.169 L243.788,29.6607 L192.867,119.23 L190,102.345 Z" style="stroke:none;fill-rule:evenodd;fill:#ffffff;fill-opacity:1;"/>
        </g>
    </g>
    <g id="Layer2">
        <g id="Shape2">
            <desc type="0" basicInfo-basicType="0" basicInfo-roundedRectRadius="12" basicInfo-polygonSides="6" basicInfo-starPoints="5" bounding="rect(0,0,0,0)" text="" font-familyName="" font-pixelSize="20" font-bold="0" font-underline="0" font-alignment="1" strokeStyle="0" markerStart="0" markerEnd="0" shadowEnabled="0" shadowOffsetX="0" shadowOffsetY="2" shadowBlur="4" shadowOpacity="160" blurEnabled="0" blurRadius="4" transform="matrix(0.0451878,0,0,0.0451887,-1.98132,-3.0921)" pers-center="0,0" pers-size="0,0" pers-start="0,0" pers-end="0,0" locked="0" mesh="" flag="Trace_1"/>
            <path id="shapePath2" d="M-1.98132,-3.0921 Z" style="stroke:none;fill-rule:evenodd;fill:#000000;fill-opacity:0;"/>
        </g>
        <g id="Shape3">
            <desc type="0" basicInfo-basicType="0" basicInfo-roundedRectRadius="12" basicInfo-polygonSides="6" basicInfo-starPoints="5" bounding="rect(-712.982,-634.959,1426.02,1269.87)" text="" font-familyName="" font-pixelSize="20" font-bold="0" font-underline="0" font-alignment="1" strokeStyle="0" markerStart="0" markerEnd="0" shadowEnabled="0" shadowOffsetX="0" shadowOffsetY="2" shadowBlur="4" shadowOpacity="160" blurEnabled="0" blurRadius="4" transform="matrix(0.135563,4.73198e-05,-4.73207e-05,0.135566,137.445,93.8629)" pers-center="0,0" pers-size="0,0" pers-start="0,0" pers-end="0,0" locked="0" mesh="" flag="Trace_1"/>
            <path id="shapePath3" d="M40.7609,179.902 L137.143,7.784 L234.076,179.902 L190.694,179.902 L137.143,86.0364 L100.674,151.113 L88.2933,151.086 L137.143,64.0688 L195.853,167.88 L214.985,167.791 L137.143,29.8955 L59.4737,167.831 L153.026,167.862 L163.949,148.712 L170.08,159.877 L158.947,179.902 L40.7609,179.902 Z" style="stroke:none;fill-rule:evenodd;fill:#ffffff;fill-opacity:1;"/>
        </g>
    </g>
    <g id="Layer3">
        <g id="Shape4">
            <desc type="2" basicInfo-basicType="0" basicInfo-roundedRectRadius="12" basicInfo-polygonSides="6" basicInfo-starPoints="5" bounding="rect(-113.854,-29.2419,227.707,58.4838)" text="ROBOTICS" font-familyName="Lantinghei TC" font-pixelSize="37" font-bold="1" font-underline="0" font-alignment="0" strokeStyle="0" markerStart="0" markerEnd="0" shadowEnabled="0" shadowOffsetX="0" shadowOffsetY="2" shadowBlur="4" shadowOpacity="160" blurEnabled="0" blurRadius="4" transform="matrix(1,0,0,1,234.882,221.681)" pers-center="0,0" pers-size="0,0" pers-start="0,0" pers-end="0,0" locked="0" mesh="" flag=""/>
            <path id="shapePath4" d="M150.523,235.181 L144.741,235.181 L135.636,222.896 L128.843,222.896 L128.843,235.181 L124.362,235.181 L124.362,205.552 L138.093,205.552 C144.741,205.745 148.258,208.587 148.644,214.079 C148.644,219.09 145.898,221.932 140.405,222.607 L150.523,235.181 M128.843,209.165 L128.843,219.283 L137.081,219.283 C141.706,219.283 143.971,217.596 143.874,214.224 C143.874,210.852 141.61,209.165 137.081,209.165 L128.843,209.165 M167.421,205.118 C176.382,205.697 181.2,210.852 181.874,220.583 C181.392,230.122 176.527,235.133 167.277,235.615 C158.027,235.133 153.209,230.122 152.823,220.583 C153.305,210.755 158.171,205.6 167.421,205.118 M167.132,232.001 C173.299,231.712 176.527,227.906 176.816,220.583 C176.527,213.357 173.347,209.503 167.277,209.021 C161.206,209.503 157.978,213.357 157.593,220.583 C157.882,227.714 161.062,231.52 167.132,232.001 M200.362,235.181 L186.921,235.181 L186.921,205.552 L199.64,205.552 C205.903,205.745 209.227,208.105 209.612,212.634 C209.516,216.392 207.493,218.704 203.542,219.572 C203.542,219.572 203.542,219.62 203.542,219.716 C208.071,220.487 210.528,222.848 210.913,226.798 C210.913,232.387 207.396,235.181 200.362,235.181 M199.351,221.74 L191.402,221.74 L191.402,231.857 L199.64,231.857 C203.879,231.857 205.999,230.074 205.999,226.509 C205.806,223.426 203.59,221.836 199.351,221.74 M198.773,209.021 L191.402,209.021 L191.402,218.126 L198.773,218.126 C202.723,218.03 204.747,216.44 204.843,213.357 C204.747,210.466 202.723,209.021 198.773,209.021 M229.546,205.118 C238.507,205.697 243.325,210.852 243.999,220.583 C243.517,230.122 238.652,235.133 229.402,235.615 C220.152,235.133 215.334,230.122 214.948,220.583 C215.43,210.755 220.296,205.6 229.546,205.118 M229.257,232.001 C235.424,231.712 238.652,227.906 238.941,220.583 C238.652,213.357 235.472,209.503 229.402,209.021 C223.331,209.503 220.103,213.357 219.718,220.583 C220.007,227.714 223.187,231.52 229.257,232.001 M271.593,209.31 L261.476,209.31 L261.476,235.181 L256.995,235.181 L256.995,209.31 L246.734,209.31 L246.734,205.552 L271.593,205.552 L271.593,209.31 M276.07,235.181 L276.07,205.552 L280.55,205.552 L280.55,235.181 L276.07,235.181 M312.335,213.935 L307.855,215.091 C306.698,211.237 304.097,209.214 300.05,209.021 C294.365,209.406 291.33,213.212 290.945,220.439 C291.234,227.665 294.221,231.52 299.905,232.001 C304.53,231.905 307.325,229.4 308.288,224.486 L312.769,225.786 C311.323,232.339 307.036,235.615 299.905,235.615 C291.137,235.133 286.512,230.122 286.03,220.583 C286.512,210.852 291.185,205.697 300.05,205.118 C306.217,205.311 310.312,208.25 312.335,213.935 M316.37,226.22 L320.995,225.208 C321.67,229.93 324.416,232.29 329.234,232.29 C333.473,232.194 335.689,230.508 335.882,227.232 C336.171,225.016 334.196,223.329 329.956,222.173 C329.571,221.98 328.752,221.74 327.499,221.451 C327.114,221.354 326.825,221.306 326.632,221.306 C320.176,219.957 317.141,217.211 317.527,213.068 C317.912,208.057 321.429,205.408 328.077,205.118 C334.822,205.022 338.773,207.72 339.929,213.212 L335.448,214.224 C334.774,210.659 332.413,208.876 328.366,208.876 C324.609,208.973 322.585,210.37 322.296,213.068 C322.007,215.284 324.32,216.874 329.234,217.837 C331.161,218.319 332.606,218.704 333.57,218.993 C338.484,220.535 340.892,223.233 340.796,227.087 C340.603,232.579 336.797,235.422 329.378,235.615 C321.959,235.807 317.623,232.676 316.37,226.22 " style="stroke:none;fill-rule:nonzero;fill:#ffffff;fill-opacity:1;"/>
        </g>
        <g id="Shape5">
            <desc type="2" basicInfo-basicType="0" basicInfo-roundedRectRadius="12" basicInfo-polygonSides="6" basicInfo-starPoints="5" bounding="rect(-41.6467,-29.0007,83.2935,58.0013)" text="MR" font-familyName="Lantinghei TC" font-pixelSize="38" font-bold="0" font-underline="0" font-alignment="2" strokeStyle="0" markerStart="0" markerEnd="0" shadowEnabled="0" shadowOffsetX="0" shadowOffsetY="2" shadowBlur="4" shadowOpacity="160" blurEnabled="0" blurRadius="4" transform="matrix(1,0,0,1,60.6866,220.698)" pers-center="0,0" pers-size="0,0" pers-start="0,0" pers-end="0,0" locked="0" mesh="" flag=""/>
            <path id="shapePath5" d="M65.3897,205.526 L69.2491,205.526 L69.2491,235.214 L67.0225,235.214 L67.0225,207.307 L66.7257,207.307 L55.8897,235.065 L53.96,235.065 L43.1241,207.307 L42.8272,207.307 L42.8272,235.214 L40.7491,235.214 L40.7491,205.526 L44.46,205.526 L54.8507,232.69 L54.9991,232.69 L65.3897,205.526 M77.9991,207.456 L77.9991,219.776 L88.6866,219.776 C94.3272,219.875 97.0981,217.797 96.9991,213.542 C96.9991,209.484 94.2283,207.456 88.6866,207.456 L77.9991,207.456 M101.749,235.065 L98.6319,235.065 L87.6475,221.706 L77.9991,221.706 L77.9991,235.065 L75.7725,235.065 L75.7725,205.526 L89.4288,205.526 C95.7621,205.724 99.0772,208.445 99.3741,213.69 C99.3741,218.737 96.3559,221.409 90.3194,221.706 L101.749,235.065 " style="stroke:none;fill-rule:nonzero;fill:#ffffff;fill-opacity:1;"/>
        </g>
        <g id="Shape6">
            <desc type="0" basicInfo-basicType="1" basicInfo-roundedRectRadius="12" basicInfo-polygonSides="6" basicInfo-starPoints="5" bounding="rect(-2.70437,-2.28625,5.40875,4.57253)" text="" font-familyName="Lantinghei TC" font-pixelSize="38" font-bold="0" font-underline="0" font-alignment="2" strokeStyle="0" markerStart="0" markerEnd="0" shadowEnabled="0" shadowOffsetX="0" shadowOffsetY="2" shadowBlur="4" shadowOpacity="160" blurEnabled="0" blurRadius="4" transform="matrix(1.04582,1.04579,-1.23706,1.2371,110.86,226.026)" pers-center="0,0" pers-size="0,0" pers-start="0,0" pers-end="0,0" groupID="1" locked="0" mesh="" flag=""/>
            <path id="shapePath6" d="M110.86,220.37 L116.516,226.026 L110.86,231.683 L105.204,226.026 L110.86,220.37 Z" style="stroke:none;fill-rule:evenodd;fill:#ffffff;fill-opacity:1;"/>
        </g>
        <g id="Shape7">
            <desc type="0" basicInfo-basicType="0" basicInfo-roundedRectRadius="12" basicInfo-polygonSides="6" basicInfo-starPoints="5" bounding="rect(-6.29345,-6.42773,12.587,12.8553)" text="" font-familyName="Lantinghei TC" font-pixelSize="38" font-bold="0" font-underline="0" font-alignment="2" strokeStyle="0" markerStart="0" markerEnd="0" shadowEnabled="0" shadowOffsetX="0" shadowOffsetY="2" shadowBlur="4" shadowOpacity="160" blurEnabled="0" blurRadius="4" transform="matrix(0.449432,0.449422,-0.44005,0.440062,110.86,226.027)" pers-center="0,0" pers-size="0,0" pers-start="0,0" pers-end="0,0" groupID="1" locked="0" mesh="" flag=""/>
            <path id="shapePath7" d="M110.86,220.37 L110.86,231.684 L105.204,226.027 L110.86,220.37 Z" style="stroke:none;fill-rule:evenodd;fill:#ffffff;fill-opacity:1;"/>
        </g>
    </g>
</svg>
