<?xml version="1.0" standalone="no"?>
<!DOCTYPE svg PUBLIC "-//W3C//DTD SVG 20010904//EN"
 "http://www.w3.org/TR/2001/REC-SVG-20010904/DTD/svg10.dtd">
<svg version="1.0" xmlns="http://www.w3.org/2000/svg"
 width="700.000000pt" height="700.000000pt" viewBox="0 0 700.000000 700.000000"
 preserveAspectRatio="xMidYMid meet">
<metadata>
Created by potrace 1.11, written by Peter Selinger 2001-2013
</metadata>
<g transform="translate(0.000000,700.000000) scale(0.100000,-0.100000)"
fill="#000000" stroke="none">
<path d="M5625 6984 c-16 -8 -139 -124 -273 -257 -133 -133 -244 -243 -245
-244 -2 -1 -53 46 -114 106 -120 117 -149 132 -223 111 -28 -8 -285 -260
-1226 -1202 -790 -791 -1195 -1203 -1201 -1223 -11 -32 -8 -88 5 -112 5 -8 55
-61 112 -119 l104 -105 -247 -247 c-264 -265 -284 -291 -272 -366 7 -38 34
-68 319 -354 171 -173 324 -321 341 -329 39 -21 106 -20 136 1 13 9 134 126
269 261 l246 245 99 -101 c55 -55 113 -107 128 -116 45 -23 102 -19 140 9 17
14 188 181 379 372 l348 347 57 -34 c142 -86 270 -121 440 -122 l122 0 31 -64
c44 -89 98 -255 122 -374 22 -112 33 -396 18 -477 -4 -25 -11 -67 -14 -95 -4
-27 -9 -58 -12 -67 -3 -9 -7 -27 -9 -40 -11 -54 -70 -220 -110 -305 -213 -457
-661 -802 -1155 -889 -14 -2 -36 -6 -50 -9 -120 -22 -423 -23 -573 -1 -184 27
-325 66 -497 139 -96 40 -250 122 -250 132 0 2 183 4 407 4 447 1 451 1 497
64 20 27 21 41 21 372 0 334 -1 344 -21 372 -12 15 -36 37 -54 47 -32 19 -69
19 -1380 19 -1325 1 -1348 0 -1381 -19 -19 -11 -43 -37 -55 -57 -20 -36 -21
-51 -20 -365 1 -308 2 -329 21 -361 38 -65 68 -72 289 -72 l196 0 46 -91 c129
-257 341 -527 546 -695 l67 -55 3 -262 3 -263 28 -36 c18 -24 41 -40 66 -47
26 -7 701 -9 2109 -8 l2071 3 27 21 c15 11 37 33 48 48 20 26 21 40 21 489 1
254 -3 477 -8 495 -17 67 -66 103 -147 108 -25 1 -52 3 -60 3 -10 1 -11 4 -3
9 18 12 156 239 212 351 118 234 222 545 255 761 3 19 8 44 10 56 2 11 7 47
10 80 4 32 9 86 13 119 8 76 8 346 0 445 -7 85 -25 227 -31 250 -3 8 -7 31
-10 50 -8 50 -75 319 -86 339 -4 9 -23 59 -42 111 -73 209 -281 585 -389 703
-10 10 -23 49 -29 85 -18 93 -63 215 -109 291 l-39 65 218 218 c238 239 246
249 227 335 -4 23 -38 65 -115 142 l-108 110 239 238 c131 131 247 250 258
265 24 33 30 83 15 127 -7 22 -111 133 -325 347 -246 246 -322 316 -350 324
-49 14 -71 12 -106 -6z"/>
</g>
</svg>
