<?xml version="1.0" standalone="no"?>
<!DOCTYPE svg PUBLIC "-//W3C//DTD SVG 20010904//EN"
 "http://www.w3.org/TR/2001/REC-SVG-20010904/DTD/svg10.dtd">
<svg version="1.0" xmlns="http://www.w3.org/2000/svg"
 width="512.000000pt" height="512.000000pt" viewBox="0 0 512.000000 512.000000"
 preserveAspectRatio="xMidYMid meet">
<metadata>
Created by potrace 1.14, written by Peter Selinger 2001-2017
</metadata>
<g transform="translate(0.000000,512.000000) scale(0.100000,-0.100000)"
fill="#000000" stroke="none">
<path d="M1345 5111 c-29 -13 -1327 -1314 -1337 -1340 -4 -12 -6 -32 -4 -44 3
-12 5 -28 5 -35 1 -8 300 -313 665 -678 635 -634 666 -664 701 -664 20 0 46 5
58 11 12 6 151 139 308 296 l286 284 81 -81 c45 -44 82 -84 82 -88 0 -4 -191
-197 -423 -429 l-423 -423 -523 0 c-562 -1 -562 -1 -589 -52 -19 -35 -21 -60
-8 -91 13 -33 1508 -1532 1549 -1553 28 -15 52 -13 95 9 51 25 51 26 52 588
l0 523 423 423 c232 232 425 423 429 423 5 0 44 -37 89 -82 l80 -82 -284 -285
c-157 -157 -290 -296 -296 -308 -6 -12 -11 -38 -11 -58 0 -35 29 -65 668 -703
598 -599 670 -667 701 -669 18 -1 45 4 60 11 46 25 1325 1312 1333 1343 5 15
5 41 2 57 -5 22 -175 198 -658 681 -358 359 -661 657 -673 663 -12 7 -39 12
-59 12 -36 0 -51 -14 -335 -296 l-296 -296 -82 83 c-44 46 -81 85 -81 88 0 4
199 204 441 446 243 242 447 452 455 466 27 54 15 85 -68 172 -43 45 -78 84
-78 88 0 4 223 230 495 502 313 313 500 508 509 529 38 93 -70 177 -155 120
-15 -9 -248 -238 -518 -509 l-491 -492 -75 75 c-41 41 -87 79 -101 84 -65 25
-66 24 -540 -451 -247 -247 -452 -449 -457 -449 -4 0 -43 37 -87 82 l-80 82
295 296 c287 288 295 298 295 336 0 21 -8 51 -18 65 -16 25 -1267 1278 -1304
1308 -22 17 -77 23 -103 12z"/>
<path d="M48 832 c-37 -22 -51 -68 -43 -145 8 -87 13 -111 36 -181 96 -287
375 -496 667 -500 82 -1 84 -1 113 32 41 46 40 99 -2 141 -17 17 -40 31 -52
32 -108 5 -162 17 -235 50 -196 88 -309 265 -321 501 0 15 -14 40 -32 57 -36
36 -87 41 -131 13z"/>
<path d="M482 837 c-60 -34 -71 -114 -27 -214 48 -108 141 -178 255 -190 70
-7 104 6 126 49 41 79 -5 146 -109 162 -36 5 -74 44 -82 83 -15 85 -51 123
-113 123 -15 -1 -37 -6 -50 -13z"/>
</g>
</svg>
