<?xml version="1.0" standalone="no"?>
<!DOCTYPE svg PUBLIC "-//W3C//DTD SVG 20010904//EN"
 "http://www.w3.org/TR/2001/REC-SVG-20010904/DTD/svg10.dtd">
<svg version="1.0" xmlns="http://www.w3.org/2000/svg"
 width="700.000000pt" height="700.000000pt" viewBox="0 0 700.000000 700.000000"
 preserveAspectRatio="xMidYMid meet">
<metadata>
Created by potrace 1.11, written by Peter Selinger 2001-2013
</metadata>
<g transform="translate(0.000000,700.000000) scale(0.100000,-0.100000)"
fill="#000000" stroke="none">
<path d="M6110 6980 c-372 -49 -716 -151 -1155 -343 -336 -147 -766 -402
-1115 -662 -129 -96 -340 -266 -395 -317 -11 -10 -31 -28 -45 -39 -146 -118
-622 -599 -856 -863 -43 -49 -101 -113 -129 -143 l-50 -53 -65 10 c-36 5 -87
12 -115 15 -53 7 -323 7 -365 1 -14 -2 -50 -7 -80 -11 -117 -14 -325 -66 -405
-100 -16 -7 -55 -23 -85 -35 -66 -26 -204 -100 -280 -149 -134 -88 -244 -184
-516 -453 -365 -362 -440 -455 -450 -557 -11 -121 104 -188 416 -241 63 -10
138 -22 165 -25 28 -3 61 -8 75 -11 52 -9 67 -12 125 -19 85 -11 88 -11 210
-30 61 -9 119 -18 130 -20 11 -3 31 -7 45 -9 14 -2 41 -7 61 -11 l37 -7 -5
-102 c-9 -166 31 -314 125 -468 34 -56 39 -68 24 -68 -28 0 -162 -63 -227
-105 -261 -172 -549 -695 -620 -1130 -12 -73 -13 -215 -1 -278 43 -221 188
-320 458 -312 276 8 646 143 958 350 215 143 353 318 401 508 6 26 13 47 16
47 2 0 20 -8 41 -19 114 -58 314 -91 427 -70 22 4 42 6 44 4 4 -4 20 -84 26
-125 2 -14 8 -47 13 -75 6 -27 14 -77 17 -110 4 -33 9 -62 10 -65 2 -3 6 -34
10 -70 3 -36 8 -72 11 -81 2 -9 7 -36 9 -60 3 -24 7 -55 9 -69 3 -14 8 -45 11
-70 3 -25 10 -67 15 -95 5 -27 12 -66 15 -85 13 -83 49 -199 78 -255 71 -133
167 -137 332 -12 79 59 575 554 687 684 114 133 241 344 308 513 28 69 79 230
73 230 -2 0 0 8 6 18 5 9 11 35 14 57 3 22 11 62 17 89 30 134 31 472 1 629
-8 43 -7 45 36 83 25 21 55 48 67 59 46 40 191 172 270 245 228 210 623 618
761 785 360 436 593 784 810 1210 220 431 367 849 439 1245 35 197 37 218 41
415 4 215 -14 344 -64 449 -46 95 -112 139 -262 172 -110 24 -388 26 -559 4z"/>
</g>
</svg>
